<?xml version="1.0" standalone="no"?>
<!DOCTYPE svg PUBLIC "-//W3C//DTD SVG 20010904//EN"
 "http://www.w3.org/TR/2001/REC-SVG-20010904/DTD/svg10.dtd">
<svg version="1.0" xmlns="http://www.w3.org/2000/svg"
 width="980.000000pt" height="980.000000pt" viewBox="0 0 980.000000 980.000000"
 preserveAspectRatio="xMidYMid meet">
<metadata>
Created by potrace 1.14, written by Peter Selinger 2001-2017
</metadata>
<g transform="translate(0.000000,980.000000) scale(0.100000,-0.100000)"
fill="#000000" stroke="none">
<path d="M7668 9789 c-253 -27 -675 -385 -1106 -939 -450 -579 -1016 -1508
-1472 -2420 -84 -168 -91 -186 -79 -206 26 -43 734 -1014 739 -1014 3 0 18 19
34 43 180 258 498 551 784 721 l62 37 78 -16 c441 -91 963 -44 1439 130 134
49 416 189 541 269 571 364 958 887 1084 1467 19 90 22 133 23 329 0 245 -8
306 -66 484 -109 333 -356 640 -670 830 -247 149 -533 244 -845 281 -137 16
-415 18 -546 4z m722 -675 c200 -66 345 -236 412 -484 21 -76 23 -107 23 -290
0 -176 -3 -220 -23 -315 -142 -671 -645 -1335 -1177 -1552 -141 -57 -226 -75
-355 -76 -100 0 -126 3 -195 27 -225 77 -369 256 -426 531 -25 117 -27 341 -4
480 131 816 799 1607 1440 1705 90 13 219 2 305 -26z"/>
<path d="M1595 9739 c-753 -91 -1327 -512 -1525 -1119 -57 -174 -65 -236 -65
-480 1 -196 4 -239 23 -329 54 -247 159 -494 301 -707 104 -156 169 -236 299
-368 222 -226 451 -390 746 -536 342 -169 649 -257 1010 -291 223 -21 546 -2
738 42 47 11 48 10 135 -42 233 -141 547 -423 710 -639 39 -52 761 -1215 1604
-2585 842 -1369 1547 -2513 1566 -2542 62 -95 168 -120 248 -59 44 34 205 275
284 426 197 378 286 771 260 1155 -18 264 -76 476 -199 730 -84 172 -161 290
-372 572 -412 548 -805 1034 -1638 2023 -556 660 -524 617 -674 912 -803 1581
-1658 2870 -2286 3446 -205 187 -426 341 -545 378 -61 19 -495 28 -620 13z
m213 -670 c563 -144 1130 -795 1312 -1509 72 -281 68 -597 -9 -801 -49 -129
-138 -246 -238 -312 -196 -129 -421 -136 -699 -23 -527 215 -1032 878 -1174
1541 -31 141 -38 414 -16 543 30 175 120 352 224 442 67 58 194 119 282 135
90 17 214 11 318 -16z m3184 -4117 c51 -23 110 -80 134 -131 22 -45 30 -157
15 -204 -19 -57 -74 -120 -132 -152 -46 -26 -64 -30 -129 -30 -64 0 -83 4
-128 29 -92 52 -142 133 -142 234 0 70 13 114 50 164 77 107 212 144 332 90z"/>
<path d="M3924 4658 c-1104 -984 -1969 -2004 -2144 -2525 -60 -181 -74 -277
-74 -513 -1 -164 4 -241 17 -325 55 -325 177 -668 358 -999 140 -255 176 -296
266 -296 53 0 95 29 141 97 39 57 2188 3384 2245 3476 l30 47 -338 563 c-186
309 -344 570 -351 580 -11 17 -24 8 -150 -105z"/>
</g>
</svg>
